<?xml version="1.0" encoding="utf-8"?>
<!-- Generator: Adobe Illustrator 22.0.1, SVG Export Plug-In . SVG Version: 6.00 Build 0)  -->
<svg version="1.1" id="Calque_1" xmlns="http://www.w3.org/2000/svg" xmlns:xlink="http://www.w3.org/1999/xlink" x="0px" y="0px"
	 viewBox="0 0 100 125" style="enable-background:new 0 0 100 125;" xml:space="preserve">
<style type="text/css">
	.st0{fill:#55CF9A;}
</style>
<g transform="translate(0,-952.36218)">
	<path style="fill:rgb(85, 207, 154);" class="st0" d="M69,962.6c-1-0.6-2.2-0.2-2.7,0.7l-4,6.9c-0.6,1-0.2,2.2,0.7,2.7s2.2,0.2,2.7-0.7l4-6.9
		C70.3,964.4,70,963.2,69,962.6z M38.7,958.7c-0.4-0.3-1-0.3-1.5-0.2c-1.1,0.3-1.7,1.4-1.4,2.4l2.1,7.7c0.3,1.1,1.4,1.7,2.4,1.4
		c1.1-0.3,1.7-1.4,1.4-2.4l-2.1-7.7C39.4,959.3,39.1,958.9,38.7,958.7z M87.6,986.9c-0.4-0.3-1-0.3-1.5-0.2l-7.7,2.1
		c-1.1,0.3-1.7,1.4-1.4,2.4c0.3,1.1,1.4,1.7,2.4,1.4l7.7-2.1c1.1-0.3,1.7-1.4,1.4-2.4C88.4,987.6,88.1,987.2,87.6,986.9z M60,978.2
		c-10.6-6.1-25.5-3.8-32.2,7.8c-8.2,14.2-0.3,23.6-4.4,33.4l19.3,11.1c6.4-8.5,18.5-6.4,26.7-20.5C76.1,998.4,70.6,984.3,60,978.2
		L60,978.2z M14.4,977.3c-1-0.6-2.2-0.2-2.7,0.7c-0.6,1-0.2,2.2,0.7,2.7l6.9,4c1,0.6,2.2,0.2,2.7-0.7c0.6-1,0.2-2.2-0.7-2.7
		L14.4,977.3z M76.7,1013.3c-1-0.6-2.2-0.2-2.7,0.7c-0.6,1-0.2,2.2,0.7,2.7l6.9,4c1,0.6,2.2,0.2,2.7-0.7c0.6-1,0.2-2.2-0.7-2.7
		L76.7,1013.3z M21.5,1023l-2,3.5l19.1,11l2-3.5L21.5,1023L21.5,1023z M17.5,1029.9l-1,1.7c-1.1,2-0.4,4.4,1.5,5.5l2.6,1.5l-1,1.7
		c-1.1,1.9-0.5,4.4,1.5,5.5c1.9,1.1,4.4,0.5,5.5-1.5l1-1.7l2.6,1.5c1.8,1.1,4.3,0.5,5.5-1.5l1-1.7L17.5,1029.9L17.5,1029.9z"/>
</g>
</svg>